<?xml version="1.0" standalone="no"?>
<!DOCTYPE svg PUBLIC "-//W3C//DTD SVG 20010904//EN"
 "http://www.w3.org/TR/2001/REC-SVG-20010904/DTD/svg10.dtd">
<svg version="1.0" xmlns="http://www.w3.org/2000/svg"
 width="307.000000pt" height="307.000000pt" viewBox="0 0 307.000000 307.000000"
 preserveAspectRatio="xMidYMid meet">
<metadata>
Created by potrace 1.11, written by Peter Selinger 2001-2013
</metadata>
<g transform="translate(0.000000,307.000000) scale(0.100000,-0.100000)"
fill="#000000" stroke="none">
<path d="M715 2770 c-137 -28 -268 -126 -324 -243 -46 -97 -51 -150 -51 -541
0 -213 -5 -396 -12 -450 -8 -68 -8 -91 0 -94 9 -3 12 -81 12 -285 0 -155 5
-309 10 -342 28 -169 163 -316 333 -361 36 -10 116 -14 263 -14 208 0 212 0
227 -23 l15 -22 30 22 31 23 528 0 c576 0 596 2 691 57 63 37 141 117 174 179
59 109 58 100 58 926 0 514 -4 774 -11 810 -20 97 -63 171 -140 242 -73 68
-133 98 -233 117 -59 11 -1544 10 -1601 -1z m1715 -61 c117 -57 189 -141 225
-262 23 -76 22 -1608 0 -1684 -35 -118 -136 -224 -260 -274 l-60 -24 -533 -3
-533 -3 26 51 c47 93 42 181 -14 265 l-27 40 266 0 c288 1 412 13 525 50 55
18 90 23 165 22 104 -2 116 3 225 79 114 80 155 141 181 270 16 78 16 100 -4
384 -12 168 -19 214 -44 315 -75 310 -236 510 -518 644 -169 80 -195 84 -505
84 -44 0 -120 0 -170 0 -119 0 -205 -22 -340 -88 -266 -130 -441 -343 -504
-611 -9 -39 -25 -64 -63 -105 -28 -30 -62 -76 -74 -104 l-24 -50 0 346 c0 385
3 410 67 506 58 88 136 146 238 179 31 10 217 12 860 11 l820 -2 75 -36z
m-965 -902 c22 -15 50 -34 62 -43 21 -15 24 -15 54 10 64 54 106 69 184 64
103 -7 146 -39 225 -167 70 -114 126 -173 187 -198 42 -17 43 -19 43 -63 0
-63 -18 -326 -26 -380 -14 -95 -123 -154 -331 -179 -116 -14 -541 -15 -649 -1
-149 19 -258 56 -302 103 -28 30 -40 115 -49 333 l-6 171 32 6 c73 15 139 81
224 223 72 120 130 157 242 151 56 -2 78 -8 110 -30z m-1056 -327 c-16 -83 -6
-249 19 -321 28 -79 44 -107 91 -161 23 -26 41 -56 41 -70 0 -41 46 -123 89
-159 43 -38 98 -59 149 -59 28 0 32 -4 42 -39 20 -73 110 -131 205 -131 53 0
104 -34 105 -68 0 -11 -41 -13 -222 -10 -200 4 -229 6 -278 26 -130 52 -223
148 -260 270 -18 58 -20 93 -20 394 0 319 1 332 21 365 12 19 23 32 26 29 2
-2 -1 -32 -8 -66z m350 -282 c29 -91 69 -171 115 -231 20 -26 36 -49 36 -52 0
-10 -123 -5 -161 6 -21 7 -55 29 -75 50 -35 36 -38 45 -42 105 -6 88 12 139
57 170 20 13 38 24 41 24 3 0 17 -33 29 -72z m1636 35 c55 -59 60 -183 10
-248 -38 -51 -94 -75 -177 -75 -38 0 -68 4 -68 8 0 5 14 21 31 38 36 34 111
180 130 254 15 59 34 65 74 23z m-1478 -387 c-24 -22 -50 -52 -59 -66 l-17
-25 0 38 c-1 54 25 95 63 99 56 6 58 -3 13 -46z"/>
<path d="M1060 1510 c0 -5 12 -12 28 -16 15 -3 46 -11 70 -18 42 -13 63 -7 39
11 -34 27 -137 44 -137 23z"/>
<path d="M1935 1505 c-22 -8 -41 -15 -42 -15 -2 0 -3 -7 -3 -16 0 -11 5 -14
18 -9 28 11 65 23 95 29 15 4 27 11 27 16 0 14 -48 11 -95 -5z"/>
<path d="M1026 1355 c-71 -66 -58 -183 26 -235 116 -71 246 75 179 200 -24 45
-53 60 -122 60 -46 0 -61 -4 -83 -25z"/>
<path d="M1914 1370 c-59 -24 -86 -105 -59 -176 56 -147 255 -108 255 51 0 52
-19 96 -52 119 -24 17 -108 21 -144 6z"/>
<path d="M1462 998 c7 -19 83 -33 125 -22 20 5 38 15 41 22 3 10 -3 11 -25 5
-15 -4 -41 -8 -58 -8 -16 0 -43 4 -58 8 -22 6 -28 5 -25 -5z"/>
</g>
</svg>
